<svg xmlns="http://www.w3.org/2000/svg" viewBox="0 0 38.97 44.85">
    <path fill="#d6d3d1"
        d="m29.65 0 .62.22c.65 2.2 3.67 4.42 2.52 6.6-3.82 6.38-7.62 12.85-11.42 19.28a13.26 13.26 0 0 1-6.97-.49C19.45 17.06 24.5 8.5 29.65 0Z" />
    <path fill="#f9ba00"
        d="m15.25 23.87-2.78 4.49c-3.22-1.1-7.73.98-10.44 4.98-2.92 4.3-2.66 9.19.58 10.91 3.23 1.72 8.22-.37 11.14-4.67 2-2.95 2.5-6.17 1.59-8.46l2.29-2.3 1.31-2.12 1.99 3.34 2.34 2.47c-.3 2.1.33 4.68 1.95 7.07 2.92 4.3 7.9 6.4 11.15 4.67 3.23-1.72 3.5-6.6.57-10.91-2.91-4.3-7.9-6.4-11.14-4.68l-.2.12-2.8-3.84-3.35.94.52-.83zm-4.9 7.32c.37 0 .7.07.97.21 1.43.77 1.57 3.78-.39 6.68s-5.03 4.2-6.47 3.43c-1.43-.76-1.57-3.78.39-6.67 1.6-2.35 3.92-3.65 5.5-3.65Zm18.27 0c1.59 0 3.91 1.3 5.5 3.65 1.97 2.9 1.83 5.91.4 6.67-1.44.77-4.52-.54-6.47-3.43-1.97-2.9-1.83-5.91-.4-6.68.28-.14.6-.21.97-.21z" />
    <path fill="#e7e5e4"
        d="m8.43 0-.61.22c-.64 2.2-3.6 4.42-2.48 6.6C9.1 13.2 12.83 19.67 16.56 26.1a12.8 12.8 0 0 0 6.84-.49C18.44 17.06 13.48 8.5 8.43 0Z" />
    <path fill="#d6d3d1" d="M19.84 22.94a1.34 1.37 0 1 1-2.68 0 1.34 1.37 0 1 1 2.68 0z" color="#000"
        style="marker:none" />
</svg>